<svg xmlns="http://www.w3.org/2000/svg" width="25" height="25"><rect width="100%" height="100%" fill="#4665ce"/><path fill="none" stroke="#0e29af" stroke-width="5" d="M25 30a5 5 0 1 1 0-10 5 5 0 0 1 0 10zm0-25a5 5 0 1 1 0-10 5 5 0 0 1 0 10zM0 30a5 5 0 1 1 0-10 5 5 0 0 1 0 10zM0 5A5 5 0 1 1 0-5 5 5 0 0 1 0 5zm12.5 12.5a5 5 0 1 1 0-10 5 5 0 0 1 0 10z"/><path fill="none" stroke="#161448" stroke-width="5" d="M0 15a2.5 2.5 0 1 1 0-5 2.5 2.5 0 0 1 0 5zm25 0a2.5 2.5 0 1 1 0-5 2.5 2.5 0 0 1 0 5zM12.5 2.5a2.5 2.5 0 1 1 0-5 2.5 2.5 0 0 1 0 5zm0 25a2.5 2.5 0 1 1 0-5 2.5 2.5 0 0 1 0 5z"/></svg>