<?xml version="1.0" encoding="utf-8"?>
<svg xmlns="http://www.w3.org/2000/svg" xmlns:xlink="http://www.w3.org/1999/xlink" version="1.1" style="width:0;height:0;position:absolute;overflow:hidden;">
  <defs>
<symbol viewBox="0 0 900 886" aria-labelledby="fwsi-entypo-linkedin-title" id="LINKEDIN"><title id="fwsi-entypo-linkedin-title">icon linkedin</title><path d="M204 96c0 26.667-9.667 49.333-29 68s-44.333 28-75 28c-29.333 0-53.333-9.333-72-28S0 122.667 0 96c0-28 9.333-51 28-69S71.333 0 102 0s55 9 73 27 27.667 41 29 69M6 886V268h192v618H6m306-420c0-57.333-1.333-123.333-4-198h166l10 86h4c40-66.667 103.333-100 190-100 66.667 0 120.333 22.333 161 67s61 111 61 199v366H708V544c0-89.333-32.667-134-98-134-46.667 0-79.333 24-98 72-4 8-6 24-6 48v356H312V466"/></symbol>
<symbol viewBox="0 0 1536 1500.3333740234375" aria-labelledby="kpsi-awesome-github-title" id="GITHUB"><title id="kpsi-awesome-github-title">icon github</title><path d="M768 0q209 0 385.5 103T1433 382.5 1536 768q0 251-146.5 451.5T1011 1497q-27 5-40-7t-13-30q0-3 .5-76.5t.5-134.5q0-97-52-142 57-6 102.5-18t94-39 81-66.5 53-105T1258 728q0-119-79-206 37-91-8-204-28-9-81 11t-92 44l-38 24q-93-26-192-26t-192 26q-16-11-42.5-27T450 331.5 365 318q-45 113-8 204-79 87-79 206 0 85 20.5 150T351 983t80.5 67 94 39 102.5 18q-39 36-49 103-21 10-45 15t-57 5-65.5-21.5T356 1146q-19-32-48.5-52t-49.5-24l-20-3q-21 0-29 4.5t-5 11.5 9 14 13 12l7 5q22 10 43.5 38t31.5 51l10 23q13 38 44 61.5t67 30 69.5 7 55.5-3.5l23-4q0 38 .5 88.5t.5 54.5q0 18-13 30t-40 7q-232-77-378.5-277.5T0 768q0-209 103-385.5T382.5 103 768 0zM291 1103q3-7-7-12-10-3-13 2-3 7 7 12 9 6 13-2zm31 34q7-5-2-16-10-9-16-3-7 5 2 16 10 10 16 3zm30 45q9-7 0-19-8-13-17-6-9 5 0 18t17 7zm42 42q8-8-4-19-12-12-20-3-9 8 4 19 12 12 20 3zm57 25q3-11-13-16-15-4-19 7t13 15q15 6 19-6zm63 5q0-13-17-11-16 0-16 11 0 13 17 11 16 0 16-11zm58-10q-2-11-18-9-16 3-14 15t18 8 14-14z"/></symbol>
<symbol viewBox="0 0 16.03208351135254 15.994004249572754" aria-labelledby="jfsi-icomoon-leaf-title" id="LEAF"><title id="jfsi-icomoon-leaf-title">icon leaf</title><path d="M15.824 2.094C14.094.783 11.431 0 8.7 0 5.323 0 2.571 1.179 1.151 3.235.484 4.2.115 5.344.054 6.633 0 7.781.193 9.051.627 10.417c1.482-4.444 5.622-7.923 10.395-7.923 0 0-4.466 1.175-7.274 4.816a10.535 10.535 0 0 0-1.526 2.719 15.387 15.387 0 0 0-1.2 5.965h2s-.304-1.91.224-4.106a17.71 17.71 0 0 0 2.357.177c1.839 0 3.146-.398 4.115-1.252.868-.765 1.347-1.794 1.854-2.882.774-1.663 1.651-3.547 4.198-5.002a.5.5 0 0 0 .054-.833z"/></symbol>
<symbol viewBox="0 0 448 448" aria-labelledby="agasi-ionic-at-title" id="EMAIL"><title id="agasi-ionic-at-title">icon at</title><path d="M421.8 375.1c-23.9 25.3-52.3 43.8-85.2 55.4C303.7 442.2 269 448 232.5 448c-34.9 0-66.7-5.5-95.3-16.6-28.6-11-53.1-26.4-73.3-46.1-20.3-19.7-36-43.3-47.2-70.8C5.5 287 0 257 0 224.5c0-32.1 6.1-61.8 18.3-89.1 12.2-27.3 28.8-51 49.9-71.1 21.1-20.1 45.7-35.8 74-47.3 28.1-11.3 58.3-17 90.3-17 27.6 0 54.4 4 80.3 12 26 8 49 20.1 69.1 36.1C402 64.2 418 84.2 430 108.3s18 52.4 18 84.9c0 24.1-3.3 45.4-10 63.8-6.7 18.5-15.6 33.9-26.8 46.4-11.2 12.5-23.9 21.8-38.3 28-14.4 6.2-29.5 9.3-45.3 9.3-16.2 0-29.2-3.8-39-11.4-9.7-7.6-14.6-17.3-14.6-28.9h-3c-6.1 9.6-15.4 18.8-28 27.4-12.6 8.6-28 13-46.3 13-27.6 0-48.9-9-63.9-27.1s-22.5-41.5-22.5-70.5c0-16.9 2.8-33.5 8.5-50s13.8-31.1 24.3-44c10.5-12.8 23.1-23.2 37.7-31 14.6-7.8 30.8-11.7 48.7-11.7 15.4 0 28.4 3.2 39 9.6 10.5 6.4 17.4 14.3 20.7 23.5h.6l4.9-24.1h54.2L325 229.4c-.8 5.6-1.9 11.8-3.3 18.7-1.4 6.8-2.1 13.2-2.1 19.3 0 6.8 1.3 12.5 4 17.2 2.6 4.6 7.8 6.9 15.5 6.9 15.8 0 28.9-8.4 39.3-25.3 10.3-16.9 15.5-39.5 15.5-68 0-24.1-4.1-45.5-12.2-64.1-8.1-18.7-19.4-34.3-33.8-47-14.4-12.6-31.6-22.2-51.4-28.6-19.9-6.4-41.6-9.6-65.1-9.6-25.6 0-49 4.5-70.3 13.5s-39.5 21.5-54.5 37.3c-15 15.9-26.7 34.5-35 56-8.4 21.4-12.6 44.6-12.6 69.5 0 26.5 4.4 50.4 13.1 71.7 8.7 21.3 21 39.4 36.8 54.5 15.8 15.1 34.7 26.6 56.6 34.6s46.1 12 72.4 12c32.9 0 61.2-5.2 84.9-15.7 23.7-10.4 45.5-24.9 65.4-43.4l33.6 36.2zM231.3 156c-9.7 0-18.3 2.8-25.6 8.4-7.3 5.6-13.5 12.7-18.6 21.4-5.1 8.6-8.9 18.2-11.6 28.6-2.6 10.4-4 20.5-4 30.1 0 4.8.5 9.9 1.5 15.4 1 5.4 3 10.4 6.1 15.1 3 4.6 7 8.4 11.9 11.4s11.4 4.5 19.5 4.5c11 0 20.3-2.7 28-8.1 7.7-5.4 14-12.2 18.9-20.5 4.9-8.2 8.4-17.2 10.7-26.8 2.2-9.6 3.3-18.5 3.3-26.5 0-6.4-.6-12.7-1.8-19-1.2-6.2-3.3-11.8-6.4-16.9-3-5-7.2-9.1-12.5-12.3-5.2-3.2-11.7-4.8-19.4-4.8z"/></symbol>
  </defs>
</svg>
